<mxfile host="Electron" agent="Mozilla/5.0 (Windows NT 10.0; Win64; x64) AppleWebKit/537.36 (KHTML, like Gecko) draw.io/28.0.6 Chrome/138.0.7204.100 Electron/37.2.3 Safari/537.36" version="28.0.6">
  <diagram name="Page-1" id="Ty4mSpyTs9-fS8-JCJYg">
    <mxGraphModel dx="983" dy="580" grid="1" gridSize="10" guides="1" tooltips="1" connect="1" arrows="1" fold="1" page="1" pageScale="1" pageWidth="850" pageHeight="1100" math="0" shadow="0">
      <root>
        <mxCell id="0" />
        <mxCell id="1" parent="0" />
        <mxCell id="keA4L4bIUD9cCmSrwREW-1" value="" style="rounded=0;whiteSpace=wrap;html=1;dashed=1;strokeColor=light-dark(#5c5c5c, #ededed);" vertex="1" parent="1">
          <mxGeometry x="10" y="310" width="140" height="360" as="geometry" />
        </mxCell>
        <mxCell id="keA4L4bIUD9cCmSrwREW-2" value="Sources" style="rounded=0;whiteSpace=wrap;html=1;strokeColor=none;fillColor=default;fontStyle=1" vertex="1" parent="1">
          <mxGeometry x="20" y="290" width="120" height="30" as="geometry" />
        </mxCell>
        <mxCell id="keA4L4bIUD9cCmSrwREW-3" value="" style="rounded=0;whiteSpace=wrap;html=1;dashed=1;strokeColor=light-dark(#5c5c5c, #ededed);" vertex="1" parent="1">
          <mxGeometry x="220" y="310" width="500" height="360" as="geometry" />
        </mxCell>
        <mxCell id="keA4L4bIUD9cCmSrwREW-4" value="" style="rounded=0;whiteSpace=wrap;html=1;dashed=1;strokeColor=light-dark(#5c5c5c, #ededed);" vertex="1" parent="1">
          <mxGeometry x="780" y="310" width="140" height="360" as="geometry" />
        </mxCell>
        <mxCell id="keA4L4bIUD9cCmSrwREW-5" value="Consume" style="rounded=0;whiteSpace=wrap;html=1;strokeColor=none;fillColor=default;fontStyle=1" vertex="1" parent="1">
          <mxGeometry x="790" y="290" width="120" height="30" as="geometry" />
        </mxCell>
        <mxCell id="keA4L4bIUD9cCmSrwREW-6" value="DWH" style="rounded=0;whiteSpace=wrap;html=1;strokeColor=none;fillColor=default;fontStyle=1" vertex="1" parent="1">
          <mxGeometry x="410" y="290" width="120" height="30" as="geometry" />
        </mxCell>
        <mxCell id="keA4L4bIUD9cCmSrwREW-7" value="Bronze Layer" style="rounded=0;whiteSpace=wrap;html=1;fillColor=#ffe6cc;strokeColor=#d79b00;fontSize=14;fontStyle=0" vertex="1" parent="1">
          <mxGeometry x="230" y="330" width="130" height="20" as="geometry" />
        </mxCell>
        <mxCell id="keA4L4bIUD9cCmSrwREW-8" value="" style="rounded=0;whiteSpace=wrap;html=1;fillColor=none;strokeColor=#d79b00;" vertex="1" parent="1">
          <mxGeometry x="230" y="360" width="130" height="300" as="geometry" />
        </mxCell>
        <mxCell id="keA4L4bIUD9cCmSrwREW-9" value="Silver Layer" style="rounded=0;whiteSpace=wrap;html=1;fillColor=#f5f5f5;fontColor=#333333;strokeColor=#666666;fontSize=14;" vertex="1" parent="1">
          <mxGeometry x="400" y="330" width="130" height="20" as="geometry" />
        </mxCell>
        <mxCell id="keA4L4bIUD9cCmSrwREW-10" value="Gold Layer" style="rounded=0;whiteSpace=wrap;html=1;fillColor=#fff2cc;strokeColor=#d6b656;gradientColor=#ffd966;fontSize=14;" vertex="1" parent="1">
          <mxGeometry x="570" y="330" width="130" height="20" as="geometry" />
        </mxCell>
        <mxCell id="keA4L4bIUD9cCmSrwREW-11" value="" style="rounded=0;whiteSpace=wrap;html=1;fillColor=none;fontColor=#333333;strokeColor=#666666;" vertex="1" parent="1">
          <mxGeometry x="400" y="360" width="130" height="300" as="geometry" />
        </mxCell>
        <mxCell id="keA4L4bIUD9cCmSrwREW-12" value="" style="rounded=0;whiteSpace=wrap;html=1;fillColor=none;strokeColor=#d6b656;gradientColor=#ffd966;" vertex="1" parent="1">
          <mxGeometry x="570" y="360" width="130" height="300" as="geometry" />
        </mxCell>
        <mxCell id="keA4L4bIUD9cCmSrwREW-13" value="&lt;b&gt;CRM&lt;/b&gt;" style="image;aspect=fixed;html=1;points=[];align=center;fontSize=12;image=img/lib/azure2/general/Folder_Blank.svg;" vertex="1" parent="1">
          <mxGeometry x="45.5" y="352" width="69" height="56.00000000000001" as="geometry" />
        </mxCell>
        <mxCell id="keA4L4bIUD9cCmSrwREW-15" value="" style="image;aspect=fixed;html=1;points=[];align=center;fontSize=12;image=img/lib/azure2/general/File.svg;" vertex="1" parent="1">
          <mxGeometry x="100" y="382" width="24.35" height="30" as="geometry" />
        </mxCell>
        <mxCell id="keA4L4bIUD9cCmSrwREW-16" value="&lt;b&gt;ERP&lt;/b&gt;" style="image;aspect=fixed;html=1;points=[];align=center;fontSize=12;image=img/lib/azure2/general/Folder_Blank.svg;" vertex="1" parent="1">
          <mxGeometry x="45.5" y="464" width="69" height="56.00000000000001" as="geometry" />
        </mxCell>
        <mxCell id="keA4L4bIUD9cCmSrwREW-17" value="" style="image;aspect=fixed;html=1;points=[];align=center;fontSize=12;image=img/lib/azure2/general/File.svg;" vertex="1" parent="1">
          <mxGeometry x="100" y="493" width="24.35" height="30" as="geometry" />
        </mxCell>
        <mxCell id="keA4L4bIUD9cCmSrwREW-18" value="" style="line;strokeWidth=2;html=1;dashed=1;dashPattern=1 1;" vertex="1" parent="1">
          <mxGeometry x="20" y="554" width="120" height="10" as="geometry" />
        </mxCell>
        <mxCell id="keA4L4bIUD9cCmSrwREW-20" value="&lt;font style=&quot;font-size: 10px;&quot;&gt;&lt;b&gt;Objetct Type&lt;/b&gt;:&amp;nbsp;&lt;/font&gt;&lt;div&gt;&lt;font style=&quot;font-size: 10px;&quot;&gt;CSV Files&lt;/font&gt;&lt;/div&gt;" style="text;html=1;align=center;verticalAlign=middle;whiteSpace=wrap;rounded=0;" vertex="1" parent="1">
          <mxGeometry x="25" y="580" width="110" height="30" as="geometry" />
        </mxCell>
        <mxCell id="keA4L4bIUD9cCmSrwREW-21" value="&lt;font style=&quot;font-size: 10px;&quot;&gt;&lt;b&gt;Interface&lt;/b&gt;:&lt;/font&gt;&lt;div&gt;&lt;font style=&quot;font-size: 10px;&quot;&gt;&amp;nbsp;Files in Folders&lt;/font&gt;&lt;/div&gt;" style="text;html=1;align=center;verticalAlign=middle;whiteSpace=wrap;rounded=0;" vertex="1" parent="1">
          <mxGeometry x="15" y="620" width="130" height="30" as="geometry" />
        </mxCell>
        <mxCell id="keA4L4bIUD9cCmSrwREW-22" value="" style="shape=datastore;whiteSpace=wrap;html=1;fillColor=#ffe6cc;strokeColor=#d79b00;" vertex="1" parent="1">
          <mxGeometry x="272.5" y="373" width="45" height="48" as="geometry" />
        </mxCell>
        <mxCell id="keA4L4bIUD9cCmSrwREW-25" value="" style="line;strokeWidth=1;html=1;fillColor=#ffe6cc;strokeColor=#d79b00;" vertex="1" parent="1">
          <mxGeometry x="235" y="454" width="120" height="10" as="geometry" />
        </mxCell>
        <mxCell id="keA4L4bIUD9cCmSrwREW-26" value="" style="line;strokeWidth=1;html=1;fillColor=#f5f5f5;fontColor=#333333;strokeColor=#666666;" vertex="1" parent="1">
          <mxGeometry x="405" y="454" width="120" height="10" as="geometry" />
        </mxCell>
        <mxCell id="keA4L4bIUD9cCmSrwREW-27" value="" style="line;strokeWidth=1;html=1;fillColor=#fff2cc;gradientColor=#ffd966;strokeColor=#d6b656;" vertex="1" parent="1">
          <mxGeometry x="575" y="454" width="120" height="10" as="geometry" />
        </mxCell>
        <mxCell id="keA4L4bIUD9cCmSrwREW-29" value="&lt;span style=&quot;font-size: 10px;&quot;&gt;Raw Data&lt;/span&gt;" style="text;html=1;align=center;verticalAlign=middle;whiteSpace=wrap;rounded=0;" vertex="1" parent="1">
          <mxGeometry x="240" y="421" width="110" height="30" as="geometry" />
        </mxCell>
        <mxCell id="keA4L4bIUD9cCmSrwREW-30" value="&lt;span style=&quot;font-size: 10px;&quot;&gt;Cleaned, Standarized Data&lt;/span&gt;" style="text;html=1;align=center;verticalAlign=middle;whiteSpace=wrap;rounded=0;" vertex="1" parent="1">
          <mxGeometry x="412" y="421" width="110" height="30" as="geometry" />
        </mxCell>
        <mxCell id="keA4L4bIUD9cCmSrwREW-31" value="&lt;span style=&quot;font-size: 10px;&quot;&gt;Business Ready Data&lt;/span&gt;" style="text;html=1;align=center;verticalAlign=middle;whiteSpace=wrap;rounded=0;" vertex="1" parent="1">
          <mxGeometry x="580" y="421" width="110" height="30" as="geometry" />
        </mxCell>
        <mxCell id="keA4L4bIUD9cCmSrwREW-32" value="&lt;font&gt;&lt;b&gt;Objetct Type&lt;/b&gt;:&amp;nbsp;&lt;/font&gt;&lt;div&gt;&lt;font&gt;Tables&lt;/font&gt;&lt;/div&gt;" style="text;html=1;align=center;verticalAlign=middle;whiteSpace=wrap;rounded=0;fontSize=10;" vertex="1" parent="1">
          <mxGeometry x="240" y="464" width="110" height="30" as="geometry" />
        </mxCell>
        <mxCell id="keA4L4bIUD9cCmSrwREW-33" value="&lt;font&gt;&lt;b&gt;Load&lt;/b&gt;:&amp;nbsp;&lt;/font&gt;&lt;div&gt;&lt;span style=&quot;background-color: transparent; color: light-dark(rgb(0, 0, 0), rgb(255, 255, 255));&quot;&gt;Batch -&amp;nbsp;&lt;/span&gt;&lt;span style=&quot;background-color: transparent; color: light-dark(rgb(0, 0, 0), rgb(255, 255, 255));&quot;&gt;Full&lt;/span&gt;&lt;br&gt;&lt;span style=&quot;background-color: transparent; color: light-dark(rgb(0, 0, 0), rgb(255, 255, 255));&quot;&gt;Truncate &amp;amp; Insert&lt;/span&gt;&lt;/div&gt;" style="text;html=1;align=center;verticalAlign=middle;whiteSpace=wrap;rounded=0;fontSize=10;" vertex="1" parent="1">
          <mxGeometry x="240" y="501" width="110" height="44" as="geometry" />
        </mxCell>
        <mxCell id="keA4L4bIUD9cCmSrwREW-34" value="&lt;span&gt;&lt;b&gt;No Transformations&lt;/b&gt;&lt;/span&gt;" style="text;html=1;align=center;verticalAlign=middle;whiteSpace=wrap;rounded=0;fontSize=10;" vertex="1" parent="1">
          <mxGeometry x="240" y="550" width="110" height="30" as="geometry" />
        </mxCell>
        <mxCell id="keA4L4bIUD9cCmSrwREW-35" value="&lt;span&gt;&lt;b&gt;Data Model: &lt;/b&gt;None (as-is)&lt;/span&gt;" style="text;html=1;align=center;verticalAlign=middle;whiteSpace=wrap;rounded=0;fontSize=10;" vertex="1" parent="1">
          <mxGeometry x="240" y="604" width="110" height="30" as="geometry" />
        </mxCell>
        <mxCell id="keA4L4bIUD9cCmSrwREW-36" value="&lt;font&gt;&lt;b&gt;Objetct Type&lt;/b&gt;:&amp;nbsp;&lt;/font&gt;&lt;div&gt;&lt;font&gt;Tables&lt;/font&gt;&lt;/div&gt;" style="text;html=1;align=center;verticalAlign=middle;whiteSpace=wrap;rounded=0;fontSize=10;" vertex="1" parent="1">
          <mxGeometry x="415" y="464" width="110" height="30" as="geometry" />
        </mxCell>
        <mxCell id="keA4L4bIUD9cCmSrwREW-37" value="&lt;font&gt;&lt;b&gt;Load&lt;/b&gt;:&amp;nbsp;&lt;/font&gt;&lt;div&gt;&lt;span style=&quot;background-color: transparent; color: light-dark(rgb(0, 0, 0), rgb(255, 255, 255));&quot;&gt;Batch -&amp;nbsp;&lt;/span&gt;&lt;span style=&quot;background-color: transparent; color: light-dark(rgb(0, 0, 0), rgb(255, 255, 255));&quot;&gt;Full&lt;/span&gt;&lt;br&gt;&lt;span style=&quot;background-color: transparent; color: light-dark(rgb(0, 0, 0), rgb(255, 255, 255));&quot;&gt;Truncate &amp;amp; Insert&lt;/span&gt;&lt;/div&gt;" style="text;html=1;align=center;verticalAlign=middle;whiteSpace=wrap;rounded=0;fontSize=10;" vertex="1" parent="1">
          <mxGeometry x="412" y="501" width="110" height="44" as="geometry" />
        </mxCell>
        <mxCell id="keA4L4bIUD9cCmSrwREW-39" value="&lt;span&gt;&lt;b&gt;Data Model: &lt;/b&gt;None (as-is)&lt;/span&gt;" style="text;html=1;align=center;verticalAlign=middle;whiteSpace=wrap;rounded=0;fontSize=10;" vertex="1" parent="1">
          <mxGeometry x="410" y="620" width="110" height="30" as="geometry" />
        </mxCell>
        <mxCell id="keA4L4bIUD9cCmSrwREW-40" value="&lt;font&gt;&lt;b&gt;Objetct Type&lt;/b&gt;:&amp;nbsp;&lt;/font&gt;&lt;div&gt;Views&lt;/div&gt;" style="text;html=1;align=center;verticalAlign=middle;whiteSpace=wrap;rounded=0;fontSize=10;" vertex="1" parent="1">
          <mxGeometry x="580" y="464" width="110" height="30" as="geometry" />
        </mxCell>
        <mxCell id="keA4L4bIUD9cCmSrwREW-41" value="&lt;font&gt;&lt;b&gt;No Load&lt;/b&gt;&amp;nbsp;&lt;/font&gt;&lt;div&gt;&lt;br&gt;&lt;/div&gt;" style="text;html=1;align=center;verticalAlign=middle;whiteSpace=wrap;rounded=0;fontSize=10;" vertex="1" parent="1">
          <mxGeometry x="580" y="501" width="110" height="22" as="geometry" />
        </mxCell>
        <mxCell id="keA4L4bIUD9cCmSrwREW-42" value="&lt;span&gt;&lt;b&gt;Transformations:&lt;/b&gt;&lt;/span&gt;&lt;div&gt;&lt;span&gt;Data Agg&lt;/span&gt;&lt;/div&gt;&lt;div&gt;&lt;span&gt;Integration&lt;/span&gt;&lt;/div&gt;&lt;div&gt;&lt;span&gt;BI Logics&lt;/span&gt;&lt;/div&gt;" style="text;html=1;align=center;verticalAlign=middle;whiteSpace=wrap;rounded=0;fontSize=10;" vertex="1" parent="1">
          <mxGeometry x="580" y="535" width="110" height="30" as="geometry" />
        </mxCell>
        <mxCell id="keA4L4bIUD9cCmSrwREW-43" value="&lt;span&gt;&lt;b&gt;Data Model:&lt;/b&gt;&lt;/span&gt;&lt;div&gt;&lt;span&gt;&lt;b&gt;&lt;/b&gt;Star Schema&lt;/span&gt;&lt;/div&gt;&lt;div&gt;&lt;span&gt;Flat Table&lt;/span&gt;&lt;/div&gt;&lt;div&gt;&lt;span&gt;Agg Tables&lt;/span&gt;&lt;/div&gt;" style="text;html=1;align=center;verticalAlign=middle;whiteSpace=wrap;rounded=0;fontSize=10;" vertex="1" parent="1">
          <mxGeometry x="580" y="594" width="110" height="50" as="geometry" />
        </mxCell>
        <mxCell id="keA4L4bIUD9cCmSrwREW-44" value="&lt;span&gt;&lt;b&gt;Transformations:&lt;/b&gt;&lt;/span&gt;&lt;div&gt;Cleaning&lt;/div&gt;&lt;div&gt;Standarization&lt;/div&gt;&lt;div&gt;Normalization&lt;/div&gt;&lt;div&gt;Derived Cols&lt;/div&gt;" style="text;html=1;align=center;verticalAlign=middle;whiteSpace=wrap;rounded=0;fontSize=10;" vertex="1" parent="1">
          <mxGeometry x="415" y="564" width="110" height="30" as="geometry" />
        </mxCell>
        <mxCell id="keA4L4bIUD9cCmSrwREW-45" value="" style="shape=datastore;whiteSpace=wrap;html=1;fillColor=#f5f5f5;fontColor=#333333;strokeColor=#666666;" vertex="1" parent="1">
          <mxGeometry x="444.5" y="373" width="45" height="48" as="geometry" />
        </mxCell>
        <mxCell id="keA4L4bIUD9cCmSrwREW-46" value="" style="shape=datastore;whiteSpace=wrap;html=1;fillColor=#fff2cc;gradientColor=#ffd966;strokeColor=#d6b656;" vertex="1" parent="1">
          <mxGeometry x="612.5" y="373" width="45" height="48" as="geometry" />
        </mxCell>
        <mxCell id="keA4L4bIUD9cCmSrwREW-47" value="BI &amp;amp; Reporting" style="image;aspect=fixed;html=1;points=[];align=center;fontSize=12;image=img/lib/azure2/analytics/Power_BI_Embedded.svg;" vertex="1" parent="1">
          <mxGeometry x="827.13" y="360" width="45" height="60" as="geometry" />
        </mxCell>
        <mxCell id="keA4L4bIUD9cCmSrwREW-48" value="Ad-Hoc Extractions" style="sketch=0;outlineConnect=0;fontColor=#232F3E;gradientColor=none;fillColor=#01A88D;strokeColor=none;dashed=0;verticalLabelPosition=bottom;verticalAlign=top;align=center;html=1;fontSize=12;fontStyle=0;aspect=fixed;pointerEvents=1;shape=mxgraph.aws4.textract_analyze_lending;" vertex="1" parent="1">
          <mxGeometry x="823.51" y="463.5" width="52.99" height="52.99" as="geometry" />
        </mxCell>
        <mxCell id="keA4L4bIUD9cCmSrwREW-50" value="ML" style="image;aspect=fixed;html=1;points=[];align=center;fontSize=12;image=img/lib/azure2/ai_machine_learning/Anomaly_Detector.svg;" vertex="1" parent="1">
          <mxGeometry x="820.13" y="565.5" width="59" height="59" as="geometry" />
        </mxCell>
        <mxCell id="keA4L4bIUD9cCmSrwREW-51" value="" style="sketch=0;outlineConnect=0;fontColor=#232F3E;gradientColor=none;fillColor=#C925D1;strokeColor=none;dashed=0;verticalLabelPosition=bottom;verticalAlign=top;align=center;html=1;fontSize=12;fontStyle=0;aspect=fixed;pointerEvents=1;shape=mxgraph.aws4.rds_sql_server_instance;" vertex="1" parent="1">
          <mxGeometry x="222" y="277" width="28" height="28" as="geometry" />
        </mxCell>
      </root>
    </mxGraphModel>
  </diagram>
</mxfile>
